<svg width="217" height="56" viewBox="0 0 217 56" fill="none" xmlns="http://www.w3.org/2000/svg">
<rect x="5.5" y="18.5" width="20" height="29" fill="url(#paint0_linear_1_32)" stroke="url(#paint1_linear_1_32)"/>
<rect x="0.5" y="40.5" width="12" height="11" fill="url(#paint2_linear_1_32)" stroke="url(#paint3_linear_1_32)"/>
<rect x="16.5" y="12.5" width="16" height="24" fill="url(#paint4_linear_1_32)" stroke="url(#paint5_linear_1_32)"/>
<rect x="9.5" y="24.5" width="13" height="19" fill="#ACACAC" stroke="#D3D6D3"/>
<path d="M51.243 17.416H64.92V20.377H54.58V31.61H63.604V34.571H54.58V46.039H64.92V49H51.243V17.416Z" fill="black"/>
<path d="M79.243 17.416H92.92V20.377H82.58V31.61H91.604V34.571H82.58V46.039H92.92V49H79.243V17.416Z" fill="black"/>
<path d="M109.568 49.468C108.272 49.468 107.192 49.216 106.328 48.712C105.464 48.208 104.756 47.524 104.204 46.66C103.676 45.772 103.292 44.728 103.052 43.528C102.836 42.328 102.728 41.02 102.728 39.604C102.728 36.484 103.292 34.048 104.42 32.296C105.572 30.52 107.3 29.632 109.604 29.632C110.3 29.632 110.924 29.716 111.476 29.884C112.028 30.052 112.544 30.268 113.024 30.532L112.232 33.088C111.488 32.608 110.66 32.368 109.748 32.368C108.452 32.368 107.492 32.956 106.868 34.132C106.268 35.308 105.968 37.132 105.968 39.604C105.968 40.636 106.028 41.596 106.148 42.484C106.268 43.348 106.472 44.092 106.76 44.716C107.072 45.34 107.468 45.832 107.948 46.192C108.452 46.552 109.088 46.732 109.856 46.732C110.384 46.732 110.852 46.672 111.26 46.552C111.692 46.408 112.1 46.228 112.484 46.012L113.168 48.424C112.784 48.688 112.268 48.928 111.62 49.144C110.996 49.36 110.312 49.468 109.568 49.468ZM127.196 39.568C127.196 41.056 127.064 42.412 126.8 43.636C126.536 44.836 126.128 45.868 125.576 46.732C125.048 47.596 124.364 48.268 123.524 48.748C122.708 49.228 121.736 49.468 120.608 49.468C119.48 49.468 118.496 49.228 117.656 48.748C116.816 48.268 116.12 47.596 115.568 46.732C115.04 45.868 114.644 44.836 114.38 43.636C114.116 42.412 113.984 41.056 113.984 39.568C113.984 38.104 114.116 36.76 114.38 35.536C114.644 34.312 115.04 33.268 115.568 32.404C116.12 31.516 116.816 30.832 117.656 30.352C118.496 29.872 119.48 29.632 120.608 29.632C121.736 29.632 122.708 29.872 123.524 30.352C124.364 30.832 125.048 31.516 125.576 32.404C126.128 33.268 126.536 34.312 126.8 35.536C127.064 36.76 127.196 38.104 127.196 39.568ZM123.956 39.568C123.956 38.512 123.896 37.552 123.776 36.688C123.656 35.8 123.464 35.044 123.2 34.42C122.936 33.772 122.588 33.28 122.156 32.944C121.724 32.584 121.208 32.404 120.608 32.404C119.984 32.404 119.456 32.584 119.024 32.944C118.616 33.28 118.268 33.772 117.98 34.42C117.716 35.044 117.524 35.8 117.404 36.688C117.284 37.552 117.224 38.512 117.224 39.568C117.224 40.624 117.284 41.596 117.404 42.484C117.524 43.348 117.716 44.092 117.98 44.716C118.268 45.34 118.616 45.832 119.024 46.192C119.456 46.528 119.984 46.696 120.608 46.696C121.208 46.696 121.724 46.528 122.156 46.192C122.588 45.832 122.936 45.34 123.2 44.716C123.464 44.092 123.656 43.348 123.776 42.484C123.896 41.596 123.956 40.624 123.956 39.568ZM130.468 30.64C131.356 30.376 132.316 30.16 133.348 29.992C134.38 29.8 135.328 29.704 136.192 29.704C137.128 29.704 137.98 29.836 138.748 30.1C139.516 30.34 140.164 30.76 140.692 31.36C141.244 31.96 141.664 32.776 141.952 33.808C142.264 34.816 142.42 36.076 142.42 37.588V49H139.324V37.84C139.324 35.968 139.084 34.6 138.604 33.736C138.124 32.872 137.224 32.44 135.904 32.44C135.208 32.44 134.428 32.56 133.564 32.8V49H130.468V30.64ZM149.203 46.804C150.115 46.804 150.799 46.552 151.255 46.048C151.735 45.52 151.975 44.836 151.975 43.996C151.975 43.468 151.879 43.024 151.687 42.664C151.495 42.28 151.243 41.944 150.931 41.656C150.619 41.368 150.259 41.116 149.851 40.9C149.443 40.66 149.035 40.408 148.627 40.144C148.219 39.904 147.823 39.628 147.439 39.316C147.055 38.98 146.707 38.608 146.395 38.2C146.107 37.768 145.867 37.288 145.675 36.76C145.507 36.208 145.423 35.572 145.423 34.852C145.423 33.292 145.903 32.032 146.863 31.072C147.847 30.112 149.167 29.632 150.823 29.632C151.519 29.632 152.179 29.728 152.803 29.92C153.427 30.088 153.943 30.28 154.351 30.496L153.667 32.98C153.235 32.74 152.803 32.56 152.371 32.44C151.939 32.32 151.471 32.26 150.967 32.26C150.199 32.26 149.587 32.488 149.131 32.944C148.675 33.376 148.447 34.012 148.447 34.852C148.447 35.332 148.531 35.752 148.699 36.112C148.867 36.448 149.083 36.76 149.347 37.048C149.635 37.312 149.947 37.564 150.283 37.804C150.643 38.044 151.015 38.272 151.399 38.488C151.855 38.752 152.299 39.04 152.731 39.352C153.187 39.664 153.583 40.036 153.919 40.468C154.279 40.876 154.567 41.368 154.783 41.944C154.999 42.496 155.107 43.168 155.107 43.96C155.107 45.616 154.615 46.948 153.631 47.956C152.671 48.964 151.255 49.468 149.383 49.468C148.423 49.468 147.559 49.336 146.791 49.072C146.023 48.808 145.447 48.568 145.063 48.352L145.711 45.796C146.071 45.988 146.551 46.204 147.151 46.444C147.775 46.684 148.459 46.804 149.203 46.804ZM160.464 30.1H165.216V32.764H160.464V43.168C160.464 44.464 160.692 45.376 161.148 45.904C161.628 46.408 162.264 46.66 163.056 46.66C163.464 46.66 163.848 46.6 164.208 46.48C164.592 46.36 164.916 46.216 165.18 46.048L165.792 48.532C164.808 49.108 163.764 49.396 162.66 49.396C160.884 49.396 159.552 48.904 158.664 47.92C157.8 46.912 157.368 45.256 157.368 42.952V25.024L160.464 24.484V30.1ZM176.063 32.908C175.295 32.572 174.431 32.404 173.471 32.404C172.583 32.404 171.755 32.56 170.987 32.872V49H167.891V30.928C168.587 30.592 169.379 30.316 170.267 30.1C171.179 29.86 172.175 29.74 173.255 29.74C173.831 29.74 174.407 29.776 174.983 29.848C175.559 29.92 176.099 30.052 176.603 30.244L176.063 32.908ZM190.143 48.46C189.831 48.58 189.447 48.7 188.991 48.82C188.559 48.916 188.091 49 187.587 49.072C187.107 49.168 186.615 49.24 186.111 49.288C185.631 49.36 185.187 49.396 184.779 49.396C183.795 49.396 182.895 49.276 182.079 49.036C181.263 48.82 180.567 48.424 179.991 47.848C179.415 47.272 178.971 46.492 178.659 45.508C178.347 44.5 178.191 43.24 178.191 41.728V30.1H181.287V41.62C181.287 43.468 181.563 44.776 182.115 45.544C182.691 46.288 183.555 46.66 184.707 46.66C185.091 46.66 185.475 46.648 185.859 46.624C186.243 46.576 186.639 46.492 187.047 46.372V30.1H190.143V48.46ZM200.24 49.468C198.944 49.468 197.864 49.216 197 48.712C196.136 48.208 195.428 47.524 194.876 46.66C194.348 45.772 193.964 44.728 193.724 43.528C193.508 42.328 193.4 41.02 193.4 39.604C193.4 36.484 193.964 34.048 195.092 32.296C196.244 30.52 197.972 29.632 200.276 29.632C200.972 29.632 201.596 29.716 202.148 29.884C202.7 30.052 203.216 30.268 203.696 30.532L202.904 33.088C202.16 32.608 201.332 32.368 200.42 32.368C199.124 32.368 198.164 32.956 197.54 34.132C196.94 35.308 196.64 37.132 196.64 39.604C196.64 40.636 196.7 41.596 196.82 42.484C196.94 43.348 197.144 44.092 197.432 44.716C197.744 45.34 198.14 45.832 198.62 46.192C199.124 46.552 199.76 46.732 200.528 46.732C201.056 46.732 201.524 46.672 201.932 46.552C202.364 46.408 202.772 46.228 203.156 46.012L203.84 48.424C203.456 48.688 202.94 48.928 202.292 49.144C201.668 49.36 200.984 49.468 200.24 49.468ZM208.792 30.1H213.544V32.764H208.792V43.168C208.792 44.464 209.02 45.376 209.476 45.904C209.956 46.408 210.592 46.66 211.384 46.66C211.792 46.66 212.176 46.6 212.536 46.48C212.92 46.36 213.244 46.216 213.508 46.048L214.12 48.532C213.136 49.108 212.092 49.396 210.988 49.396C209.212 49.396 207.88 48.904 206.992 47.92C206.128 46.912 205.696 45.256 205.696 42.952V25.024L208.792 24.484V30.1Z" fill="#238919"/>
<path d="M66.56 46.056C66.56 45.6507 66.6187 45.2827 66.736 44.952C66.8533 44.6107 67.008 44.3067 67.2 44.04C67.4027 43.7627 67.632 43.5227 67.888 43.32C68.1547 43.1067 68.432 42.92 68.72 42.76C68.464 42.4507 68.2347 42.12 68.032 41.768C67.8293 41.4053 67.728 41.0107 67.728 40.584C67.728 39.6453 68.0107 38.9253 68.576 38.424C69.1413 37.912 69.92 37.656 70.912 37.656C71.4133 37.656 71.8507 37.7253 72.224 37.864C72.5973 37.992 72.9067 38.1733 73.152 38.408C73.408 38.632 73.6 38.8987 73.728 39.208C73.856 39.5067 73.92 39.832 73.92 40.184C73.92 40.8347 73.7333 41.416 73.36 41.928C72.9973 42.4293 72.5333 42.8507 71.968 43.192L73.76 44.984C73.856 44.7707 73.9467 44.504 74.032 44.184C74.128 43.8533 74.1867 43.5653 74.208 43.32L76.192 43.576C76.1707 43.7787 76.1333 44.0027 76.08 44.248C76.0267 44.4827 75.9573 44.7227 75.872 44.968C75.7973 45.2133 75.7067 45.4587 75.6 45.704C75.504 45.9493 75.3973 46.1733 75.28 46.376C75.6213 46.76 75.952 47.1813 76.272 47.64C76.6027 48.088 76.8853 48.5413 77.12 49H74.672C74.5867 48.8613 74.4693 48.6907 74.32 48.488C74.1707 48.2747 74.0213 48.0933 73.872 47.944C73.4453 48.2853 72.9493 48.5733 72.384 48.808C71.8187 49.032 71.184 49.144 70.48 49.144C69.7333 49.144 69.1093 49.0533 68.608 48.872C68.1067 48.68 67.7013 48.44 67.392 48.152C67.0933 47.8533 66.88 47.5227 66.752 47.16C66.624 46.7867 66.56 46.4187 66.56 46.056ZM68.784 45.816C68.784 45.976 68.816 46.1413 68.88 46.312C68.944 46.4827 69.0453 46.6427 69.184 46.792C69.3333 46.9307 69.52 47.048 69.744 47.144C69.968 47.2293 70.24 47.272 70.56 47.272C71.008 47.272 71.3973 47.2133 71.728 47.096C72.0693 46.9787 72.352 46.824 72.576 46.632L70.016 44.056C69.8667 44.1307 69.7173 44.2213 69.568 44.328C69.4293 44.4347 69.3013 44.5627 69.184 44.712C69.0667 44.8507 68.9707 45.0107 68.896 45.192C68.8213 45.3733 68.784 45.5813 68.784 45.816ZM71.888 40.296C71.888 40.0507 71.808 39.832 71.648 39.64C71.488 39.448 71.2213 39.352 70.848 39.352C70.5067 39.352 70.24 39.4587 70.048 39.672C69.8667 39.8747 69.776 40.1413 69.776 40.472C69.776 40.7493 69.856 41.0213 70.016 41.288C70.176 41.544 70.384 41.7893 70.64 42.024C70.9813 41.832 71.2747 41.6027 71.52 41.336C71.7653 41.0693 71.888 40.7227 71.888 40.296Z" fill="black"/>
<defs>
<linearGradient id="paint0_linear_1_32" x1="5.61765" y1="19.2" x2="24.6079" y2="47.9122" gradientUnits="userSpaceOnUse">
<stop stop-color="#000100"/>
<stop offset="1" stop-color="#29D618"/>
</linearGradient>
<linearGradient id="paint1_linear_1_32" x1="14.2647" y1="18.6" x2="22.4623" y2="46.93" gradientUnits="userSpaceOnUse">
<stop stop-color="#706E6F"/>
<stop offset="1" stop-color="#6AB163"/>
</linearGradient>
<linearGradient id="paint2_linear_1_32" x1="11" y1="51.5" x2="8.64084" y2="38.9404" gradientUnits="userSpaceOnUse">
<stop stop-color="#000100"/>
<stop offset="1" stop-color="#29D618"/>
</linearGradient>
<linearGradient id="paint3_linear_1_32" x1="1" y1="52" x2="9.79213" y2="43.3224" gradientUnits="userSpaceOnUse">
<stop stop-color="#706E6F"/>
<stop offset="1" stop-color="#40C432"/>
</linearGradient>
<linearGradient id="paint4_linear_1_32" x1="16.5" y1="13" x2="32.5" y2="36.5" gradientUnits="userSpaceOnUse">
<stop stop-color="#000100"/>
<stop offset="1" stop-color="#29D618"/>
</linearGradient>
<linearGradient id="paint5_linear_1_32" x1="23.5" y1="12.5" x2="30.5" y2="36" gradientUnits="userSpaceOnUse">
<stop stop-color="#706E6F"/>
<stop offset="1" stop-color="#6AB163"/>
</linearGradient>
</defs>
</svg>
